<svg width="22" height="22" viewBox="0 0 22 22" fill="none" xmlns="http://www.w3.org/2000/svg">
<path d="M15.9305 0H6.06953C2.71746 0 0 2.71746 0 6.06953V15.9305C0 19.2825 2.71746 22 6.06953 22H15.9305C19.2825 22 22 19.2825 22 15.9305V6.06953C22 2.71746 19.2825 0 15.9305 0ZM20.0473 15.9305C20.0473 18.2086 18.1923 20.0473 15.9305 20.0473H6.06953C3.79142 20.0473 1.95266 18.1923 1.95266 15.9305V6.06953C1.95266 3.80769 3.80769 1.95266 6.06953 1.95266H15.9305C18.2086 1.95266 20.0473 3.80769 20.0473 6.06953V15.9305Z" fill="black"/>
<path d="M11.0003 5.3374C7.87602 5.3374 5.32129 7.87586 5.32129 11.0001C5.32129 14.1244 7.85975 16.6791 11.0003 16.6791C14.1245 16.6791 16.6793 14.1407 16.6793 11.0001C16.6793 7.87586 14.1245 5.3374 11.0003 5.3374ZM11.0003 14.7265C8.94999 14.7265 7.27395 13.0667 7.27395 11.0164C7.29022 8.94983 8.94999 7.29007 11.0003 7.29007C13.0506 7.29007 14.7266 8.94983 14.7266 11.0001C14.7266 13.0504 13.0506 14.7265 11.0003 14.7265Z" fill="black"/>
<path d="M16.9066 3.67725C16.5323 3.67725 16.158 3.8237 15.8977 4.10032C15.6373 4.36068 15.4746 4.73494 15.4746 5.1092C15.4746 5.48346 15.6211 5.85772 15.8977 6.11808C16.158 6.37843 16.5323 6.54115 16.9066 6.54115C17.2808 6.54115 17.6551 6.3947 17.9154 6.11808C18.1758 5.85772 18.3385 5.48346 18.3385 5.1092C18.3385 4.73494 18.1921 4.36068 17.9154 4.10032C17.6551 3.8237 17.2971 3.67725 16.9066 3.67725Z" fill="black"/>
</svg>
