<svg width="23" height="22" viewBox="0 0 23 22" fill="none" xmlns="http://www.w3.org/2000/svg">
<path d="M5.21545 7.14941H0.275391V22H5.21545V7.14941Z" fill="black"/>
<path d="M21.4377 8.50584C20.4037 7.3794 19.0251 6.80469 17.3248 6.80469C16.7044 6.80469 16.13 6.87365 15.6015 7.03457C15.0961 7.19549 14.6595 7.40239 14.2919 7.67825C13.9472 7.95411 13.6485 8.20699 13.4417 8.45986C13.2349 8.68974 13.0511 8.94262 12.8673 9.24147V7.12653H7.9502L7.97317 7.83917C7.97317 8.32193 7.99615 9.79319 7.99615 12.276C7.99615 14.7587 7.99615 17.9771 7.97317 21.9771H12.8903V13.7012C12.8903 13.1955 12.9362 12.7817 13.0511 12.4828C13.2579 11.9771 13.5796 11.5403 13.9932 11.1955C14.4067 10.8507 14.9352 10.6897 15.5786 10.6897C16.4287 10.6897 17.0721 10.9886 17.4627 11.5863C17.8763 12.184 18.0601 13.0116 18.0601 14.0461V21.9771H22.9772V13.4714C23.0001 11.2874 22.4947 9.63227 21.4377 8.50584Z" fill="black"/>
<path d="M2.78022 0C1.95305 0 1.28671 0.252874 0.781219 0.735632C0.252747 1.21839 0 1.81609 0 2.55172C0 3.28736 0.252747 3.88506 0.758242 4.39081C1.26374 4.87356 1.90709 5.12644 2.73427 5.12644H2.75724C3.60739 5.12644 4.27373 4.87356 4.77922 4.39081C5.28472 3.90805 5.53746 3.28736 5.53746 2.55172C5.53746 1.81609 5.26174 1.1954 4.77922 0.712644C4.27373 0.252874 3.60739 0 2.78022 0Z" fill="black"/>
</svg>
